<mxfile host="app.diagrams.net" modified="2023-10-09T14:41:00.415Z" agent="Mozilla/5.0 (Windows NT 6.1; rv:91.0) Gecko/20100101 Firefox/91.0" version="22.0.4" etag="-Aep58qu0KTcZuy3g1Fg" type="github">
  <diagram name="Страница — 1" id="Ebm_PxgNZUGvGttq1wz6">
    <mxGraphModel>
      <root>
        <mxCell id="0" />
        <mxCell id="1" parent="0" />
      </root>
    </mxGraphModel>
  </diagram>
</mxfile>
